<svg width="144" height="28" viewBox="0 0 144 28" fill="none" xmlns="http://www.w3.org/2000/svg">
<g clip-path="url(#clip0)">
<path d="M39.1569 20.751C37.1881 20.751 35.5879 22.3512 35.5879 24.3157C35.5879 26.2802 37.1881 27.8825 39.1569 27.8825C41.1193 27.8825 42.7216 26.2802 42.7216 24.3157C42.7216 22.3512 41.1193 20.751 39.1569 20.751Z" fill="#F28F17"/>
<path d="M26.8155 20.5009L26.4599 20.644C26.2192 20.644 26.0371 20.5811 25.9178 20.451C25.7986 20.3188 25.688 20.0434 25.5709 19.6184L22.1471 6.51314H15.4557L12.3182 19.6184C12.2098 20.0803 12.0862 20.3838 11.9431 20.5204L11.4378 20.7329C11.0063 20.7329 10.6811 20.3621 10.4751 19.6184L6.13198 6.51314H0L5.75036 23.6124C6.09946 24.625 6.47891 25.436 6.88222 26.0366C7.28769 26.6372 7.84061 27.0969 8.54098 27.4243C9.24785 27.7452 10.1347 27.9079 11.2188 27.9079C14.0398 27.9079 15.8395 26.4378 16.6071 23.4932L18.9294 14.6009L21.3644 23.3501C21.6311 24.2673 21.9975 25.0652 22.455 25.7396C22.9125 26.4117 23.4871 26.9451 24.1767 27.3311C24.8727 27.7149 25.688 27.9079 26.6182 27.9079C27.2535 27.9079 27.9213 27.7257 28.6239 27.3636C29.3242 27.0037 29.9769 26.4703 30.5797 25.7591C31.1803 25.05 31.6443 24.2282 31.9652 23.2894L39.9446 0.00170898H33.9492L27.1538 19.8201C27.0302 20.1865 26.9022 20.4055 26.8155 20.5009Z" fill="#F28F17"/>
<path d="M39.1569 27.8825C37.1881 27.8825 35.5879 26.2802 35.5879 24.3157C35.5879 22.3512 37.1881 20.751 39.1569 20.751C41.1193 20.751 42.7216 22.3512 42.7216 24.3157C42.7216 26.2802 41.1193 27.8825 39.1569 27.8825Z" fill="#F28F17"/>
</g>
<path d="M56.5062 14.3377C56.5062 16.315 55.9382 17.7998 54.8022 18.792C53.6733 19.7843 52.1382 20.2804 50.1969 20.2804C48.2555 20.2804 46.7204 19.7843 45.5915 18.792C44.4699 17.7998 43.909 16.315 43.909 14.3377V4.09171H48.2663V14.4456C48.2663 15.2509 48.4029 15.8656 48.6761 16.2899C48.9565 16.7141 49.4635 16.9262 50.1969 16.9262C50.9303 16.9262 51.4372 16.7141 51.7176 16.2899C52.0052 15.8656 52.149 15.2509 52.149 14.4456V4.09171H56.5062V14.3377ZM65.1417 20.2804C64.6456 20.2804 64.1207 20.2409 63.5671 20.1618C63.0206 20.0899 62.5065 19.9353 62.0248 19.698C61.543 19.4607 61.1512 19.1048 60.8492 18.6303C60.5472 18.1485 60.3962 17.505 60.3962 16.6997V11.7816H57.8401V8.54603H57.894C58.4548 8.54603 58.9006 8.52087 59.2314 8.47053C59.5693 8.4202 59.821 8.29797 59.9864 8.10383C60.1517 7.9097 60.2596 7.60412 60.3099 7.18709C60.3674 6.77005 60.3962 6.19484 60.3962 5.46144V4.79275H64.7534V8.54603H67.9135V11.7816H64.7534V15.578C64.7534 15.9951 64.8038 16.3474 64.9044 16.635C65.0051 16.9226 65.2747 17.0664 65.7133 17.0664C65.9722 17.0664 66.2167 17.0412 66.4467 16.9909C66.6768 16.9406 66.8494 16.8902 66.9644 16.8399V19.9784C66.7991 20.0503 66.5582 20.1186 66.2418 20.1833C65.9326 20.2481 65.5659 20.2804 65.1417 20.2804ZM73.3077 20.2588C72.488 20.2588 71.7546 20.1294 71.1075 19.8706C70.4604 19.6045 69.9499 19.2235 69.576 18.7273C69.2021 18.224 69.0151 17.6129 69.0151 16.8938C69.0151 16.0454 69.256 15.3623 69.7378 14.8446C70.2267 14.3269 70.8486 13.9351 71.6036 13.669C72.3658 13.403 73.1531 13.234 73.9656 13.1621C75.1232 13.0543 75.9033 12.9608 76.306 12.8817C76.7087 12.8026 76.91 12.6624 76.91 12.4611V12.4503C76.91 12.1843 76.7482 11.9578 76.4246 11.7708C76.1083 11.5767 75.684 11.4796 75.152 11.4796C74.0159 11.4796 73.4479 11.8931 73.4479 12.7199H69.1661C69.1661 11.7564 69.4358 10.9476 69.975 10.2932C70.5143 9.63894 71.2369 9.14641 72.1429 8.81566C73.056 8.47772 74.0699 8.30875 75.1843 8.30875C76.2413 8.30875 77.2299 8.46694 78.1503 8.78331C79.0778 9.09968 79.8292 9.58501 80.4044 10.2393C80.9796 10.8864 81.2672 11.7169 81.2672 12.7307V17.185C81.2672 17.5014 81.2744 17.807 81.2888 18.1018C81.3032 18.3966 81.3463 18.6698 81.4182 18.9215C81.4973 19.1875 81.6016 19.4176 81.731 19.6117C81.8604 19.7987 81.9647 19.9281 82.0438 20H77.7944C77.7297 19.9353 77.6362 19.8167 77.514 19.6441C77.3917 19.4715 77.2911 19.2738 77.212 19.0509C77.1904 18.979 77.1688 18.9107 77.1473 18.846C76.7015 19.299 76.1334 19.6477 75.4432 19.8921C74.7601 20.1366 74.0483 20.2588 73.3077 20.2588ZM74.6019 17.1743C75.0693 17.1743 75.5295 17.0412 75.9824 16.7752C76.4426 16.502 76.7482 16.0274 76.8992 15.3515C76.5613 15.4306 76.2161 15.4989 75.8638 15.5565C75.5115 15.6068 75.17 15.6499 74.8392 15.6859C74.3431 15.7362 73.9728 15.8189 73.7283 15.9339C73.491 16.0418 73.3724 16.218 73.3724 16.4624C73.3724 16.937 73.7822 17.1743 74.6019 17.1743ZM87.7627 3.1426V20H83.4809V3.1426H87.7627Z" fill="white"/>
<path d="M102.368 16.3761C102.296 17.052 101.998 17.6884 101.473 18.2851C100.955 18.8747 100.229 19.3565 99.2942 19.7304C98.3666 20.0971 97.2521 20.2804 95.9507 20.2804C94.6061 20.2804 93.4413 20.0288 92.4563 19.5254C91.4712 19.0149 90.7127 18.3103 90.1806 17.4115C89.6485 16.5056 89.3825 15.4666 89.3825 14.2946C89.3825 13.0938 89.6557 12.0441 90.2022 11.1453C90.7486 10.2465 91.5144 9.54906 92.4994 9.05294C93.4917 8.55682 94.6421 8.30875 95.9507 8.30875C97.3025 8.30875 98.4673 8.56401 99.4451 9.07451C100.43 9.57782 101.189 10.2968 101.721 11.2316C102.253 12.1591 102.519 13.2628 102.519 14.5426C102.519 14.7584 102.515 14.9417 102.508 15.0927C102.501 15.2437 102.49 15.3659 102.476 15.4594H93.826C93.9626 16.013 94.2143 16.4373 94.581 16.7321C94.9549 17.0269 95.4726 17.1743 96.1341 17.1743C96.8315 17.1743 97.3204 17.088 97.6009 16.9154C97.8885 16.7357 98.0467 16.5559 98.0754 16.3761H102.368ZM96.0046 11.3718C94.8974 11.3718 94.1855 11.8715 93.8692 12.8709H98.1401C98.0898 12.5186 97.8993 12.1807 97.5685 11.8571C97.2378 11.5336 96.7165 11.3718 96.0046 11.3718ZM116.482 16.3761C116.41 17.052 116.111 17.6884 115.586 18.2851C115.069 18.8747 114.342 19.3565 113.408 19.7304C112.48 20.0971 111.366 20.2804 110.064 20.2804C108.72 20.2804 107.555 20.0288 106.57 19.5254C105.585 19.0149 104.826 18.3103 104.294 17.4115C103.762 16.5056 103.496 15.4666 103.496 14.2946C103.496 13.0938 103.769 12.0441 104.316 11.1453C104.862 10.2465 105.628 9.54906 106.613 9.05294C107.605 8.55682 108.756 8.30875 110.064 8.30875C111.416 8.30875 112.581 8.56401 113.559 9.07451C114.544 9.57782 115.302 10.2968 115.834 11.2316C116.366 12.1591 116.633 13.2628 116.633 14.5426C116.633 14.7584 116.629 14.9417 116.622 15.0927C116.615 15.2437 116.604 15.3659 116.589 15.4594H107.94C108.076 16.013 108.328 16.4373 108.695 16.7321C109.068 17.0269 109.586 17.1743 110.248 17.1743C110.945 17.1743 111.434 17.088 111.714 16.9154C112.002 16.7357 112.16 16.5559 112.189 16.3761H116.482ZM110.118 11.3718C109.011 11.3718 108.299 11.8715 107.983 12.8709H112.254C112.203 12.5186 112.013 12.1807 111.682 11.8571C111.351 11.5336 110.83 11.3718 110.118 11.3718Z" fill="#F28F17"/>
<defs>
<clipPath id="clip0">
<rect width="42.7222" height="27.9064" fill="white"/>
</clipPath>
</defs>
</svg>
