<svg width="216" height="43" viewBox="0 0 216 43" fill="none" xmlns="http://www.w3.org/2000/svg">
<g clip-path="url(#clip0)">
<path d="M58.9233 31.3125C55.9607 31.3125 53.5527 33.7205 53.5527 36.6766C53.5527 39.6327 55.9607 42.0439 58.9233 42.0439C61.8762 42.0439 64.2874 39.6327 64.2874 36.6766C64.2874 33.7205 61.8762 31.3125 58.9233 31.3125Z" fill="#F28F17"/>
<path d="M40.3511 30.9335L39.816 31.1488C39.4539 31.1488 39.1798 31.0542 39.0003 30.8584C38.8209 30.6594 38.6545 30.245 38.4783 29.6055L33.3263 9.88512H23.2573L18.536 29.6055C18.3729 30.3005 18.1869 30.7573 17.9715 30.9629L17.2113 31.2826C16.562 31.2826 16.0726 30.7247 15.7626 29.6055L9.22722 9.88512H0L8.65297 35.6156C9.17828 37.1394 9.74927 38.3596 10.3562 39.2634C10.9663 40.1672 11.7983 40.859 12.8522 41.3516C13.9159 41.8345 15.2504 42.0792 16.8818 42.0792C21.1267 42.0792 23.8348 39.8671 24.9898 35.4362L28.4843 22.0554L32.1484 35.2208C32.5498 36.601 33.1012 37.8017 33.7896 38.8164C34.4781 39.8279 35.3427 40.6306 36.3803 41.2113C37.4277 41.7889 38.6545 42.0792 40.0542 42.0792C41.0102 42.0792 42.0152 41.8052 43.0723 41.2603C44.1262 40.7187 45.1083 39.916 46.0154 38.8458C46.9192 37.7789 47.6174 36.5423 48.1003 35.1295L60.1074 0.0869141H51.0858L40.8601 29.909C40.6742 30.4604 40.4817 30.7899 40.3511 30.9335Z" fill="#F28F17"/>
<path d="M58.9233 42.0439C55.9607 42.0439 53.5527 39.6327 53.5527 36.6766C53.5527 33.7205 55.9607 31.3125 58.9233 31.3125C61.8762 31.3125 64.2874 33.7205 64.2874 36.6766C64.2874 39.6327 61.8762 42.0439 58.9233 42.0439Z" fill="#F28F17"/>
</g>
<path d="M85.0282 21.5636C85.0282 24.539 84.1735 26.7732 82.464 28.2663C80.7653 29.7594 78.4553 30.5059 75.5341 30.5059C72.6128 30.5059 70.3028 29.7594 68.6041 28.2663C66.9163 26.7732 66.0723 24.539 66.0723 21.5636V6.14568H72.629V21.7259C72.629 22.9377 72.8346 23.8627 73.2457 24.5011C73.6677 25.1394 74.4305 25.4586 75.5341 25.4586C76.6377 25.4586 77.4004 25.1394 77.8224 24.5011C78.2552 23.8627 78.4716 22.9377 78.4716 21.7259V6.14568H85.0282V21.5636ZM98.0226 30.5059C97.2761 30.5059 96.4862 30.4464 95.6531 30.3274C94.8309 30.2192 94.0573 29.9866 93.3323 29.6296C92.6074 29.2725 92.0178 28.7369 91.5633 28.0229C91.1089 27.2979 90.8817 26.3296 90.8817 25.1178V17.7172H87.0353V12.8484H87.1165C87.9604 12.8484 88.6312 12.8105 89.1289 12.7348C89.6375 12.6591 90.0161 12.4751 90.265 12.183C90.5138 11.8909 90.6761 11.431 90.7519 10.8035C90.8384 10.176 90.8817 9.3104 90.8817 8.20681V7.20058H97.4384V12.8484H102.194V17.7172H97.4384V23.4299C97.4384 24.0575 97.5141 24.5876 97.6656 25.0204C97.8171 25.4532 98.2228 25.6696 98.8828 25.6696C99.2723 25.6696 99.6402 25.6317 99.9864 25.556C100.333 25.4803 100.592 25.4045 100.765 25.3288V30.0515C100.517 30.1597 100.154 30.2625 99.678 30.3599C99.2128 30.4573 98.661 30.5059 98.0226 30.5059ZM110.311 30.4735C109.077 30.4735 107.974 30.2787 107 29.8892C106.026 29.4889 105.258 28.9155 104.695 28.1689C104.133 27.4115 103.851 26.4919 103.851 25.4099C103.851 24.1332 104.214 23.1054 104.939 22.3263C105.674 21.5473 106.61 20.9577 107.746 20.5573C108.893 20.157 110.078 19.9028 111.301 19.7946C113.042 19.6323 114.216 19.4916 114.822 19.3726C115.428 19.2536 115.731 19.0426 115.731 18.7397V18.7234C115.731 18.3231 115.488 17.9823 115.001 17.701C114.525 17.4089 113.886 17.2628 113.086 17.2628C111.376 17.2628 110.522 17.8849 110.522 19.1292H104.078C104.078 17.6793 104.484 16.4621 105.296 15.4776C106.107 14.493 107.194 13.7518 108.558 13.2541C109.932 12.7456 111.457 12.4914 113.134 12.4914C114.725 12.4914 116.213 12.7294 117.598 13.2054C118.993 13.6815 120.124 14.4118 120.989 15.3964C121.855 16.3702 122.288 17.6198 122.288 19.1454V25.8481C122.288 26.3242 122.299 26.784 122.32 27.2276C122.342 27.6712 122.407 28.0824 122.515 28.461C122.634 28.8614 122.791 29.2076 122.986 29.4997C123.18 29.781 123.337 29.9758 123.456 30.084H117.062C116.965 29.9866 116.824 29.8081 116.64 29.5484C116.456 29.2887 116.305 28.9912 116.186 28.6558C116.153 28.5476 116.121 28.4448 116.088 28.3474C115.417 29.0291 114.563 29.5538 113.524 29.9217C112.496 30.2896 111.425 30.4735 110.311 30.4735ZM112.258 25.8319C112.961 25.8319 113.654 25.6317 114.335 25.2314C115.028 24.8203 115.488 24.1062 115.715 23.0891C115.206 23.2081 114.687 23.3109 114.157 23.3975C113.627 23.4732 113.113 23.5381 112.615 23.5922C111.869 23.668 111.311 23.7924 110.943 23.9655C110.586 24.1278 110.408 24.3929 110.408 24.7608C110.408 25.4748 111.025 25.8319 112.258 25.8319ZM132.062 4.71749V30.084H125.619V4.71749H132.062ZM154.04 24.6309C153.931 25.648 153.482 26.6055 152.692 27.5035C151.913 28.3907 150.821 29.1156 149.414 29.6783C148.018 30.23 146.341 30.5059 144.383 30.5059C142.36 30.5059 140.607 30.1273 139.125 29.3699C137.642 28.6017 136.501 27.5414 135.7 26.1889C134.9 24.8257 134.499 23.2622 134.499 21.4987C134.499 19.6918 134.911 18.1121 135.733 16.7597C136.555 15.4072 137.707 14.3577 139.19 13.6112C140.683 12.8646 142.414 12.4914 144.383 12.4914C146.417 12.4914 148.17 12.8755 149.641 13.6436C151.124 14.401 152.265 15.483 153.066 16.8895C153.866 18.2852 154.267 19.946 154.267 21.8719C154.267 22.1965 154.261 22.4724 154.251 22.6996C154.24 22.9268 154.223 23.1108 154.202 23.2514H141.186C141.391 24.0845 141.77 24.7229 142.322 25.1665C142.885 25.6101 143.664 25.8319 144.659 25.8319C145.708 25.8319 146.444 25.7021 146.866 25.4424C147.299 25.1719 147.537 24.9014 147.58 24.6309H154.04ZM144.464 17.1005C142.798 17.1005 141.727 17.8525 141.251 19.3564H147.678C147.602 18.8262 147.315 18.3177 146.817 17.8308C146.32 17.3439 145.535 17.1005 144.464 17.1005ZM175.277 24.6309C175.169 25.648 174.72 26.6055 173.93 27.5035C173.151 28.3907 172.058 29.1156 170.652 29.6783C169.256 30.23 167.579 30.5059 165.621 30.5059C163.597 30.5059 161.845 30.1273 160.362 29.3699C158.88 28.6017 157.739 27.5414 156.938 26.1889C156.137 24.8257 155.737 23.2622 155.737 21.4987C155.737 19.6918 156.148 18.1121 156.97 16.7597C157.793 15.4072 158.945 14.3577 160.427 13.6112C161.92 12.8646 163.652 12.4914 165.621 12.4914C167.655 12.4914 169.408 12.8755 170.879 13.6436C172.361 14.401 173.503 15.483 174.303 16.8895C175.104 18.2852 175.504 19.946 175.504 21.8719C175.504 22.1965 175.499 22.4724 175.488 22.6996C175.477 22.9268 175.461 23.1108 175.439 23.2514H162.424C162.629 24.0845 163.008 24.7229 163.56 25.1665C164.122 25.6101 164.901 25.8319 165.897 25.8319C166.946 25.8319 167.682 25.7021 168.104 25.4424C168.537 25.1719 168.775 24.9014 168.818 24.6309H175.277ZM165.702 17.1005C164.036 17.1005 162.964 17.8525 162.488 19.3564H168.915C168.84 18.8262 168.553 18.3177 168.055 17.8308C167.557 17.3439 166.773 17.1005 165.702 17.1005Z" fill="white"/>
<defs>
<clipPath id="clip0">
<rect width="64.2871" height="41.9928" fill="white" transform="translate(0 0.0839844)"/>
</clipPath>
</defs>
</svg>
