<svg width="144" height="29" viewBox="0 0 144 29" fill="none" xmlns="http://www.w3.org/2000/svg">
<g clip-path="url(#clip0)">
<path d="M39.6137 21.1934C37.6449 21.1934 36.0447 22.7936 36.0447 24.7581C36.0447 26.7226 37.6449 28.3249 39.6137 28.3249C41.576 28.3249 43.1784 26.7226 43.1784 24.7581C43.1784 22.7936 41.576 21.1934 39.6137 21.1934Z" fill="#F28F17"/>
<path d="M27.2717 20.9433L26.9161 21.0864C26.6754 21.0864 26.4933 21.0235 26.374 20.8934C26.2547 20.7612 26.1442 20.4858 26.0271 20.0608L22.6033 6.95553H15.9119L12.7744 20.0608C12.6659 20.5226 12.5423 20.8262 12.3992 20.9628L11.894 21.1753C11.4625 21.1753 11.1373 20.8045 10.9313 20.0608L6.58816 6.95553H0.456177L6.20654 24.0548C6.55563 25.0674 6.93509 25.8784 7.3384 26.479C7.74387 27.0796 8.29679 27.5393 8.99715 27.8667C9.70402 28.1876 10.5909 28.3503 11.675 28.3503C14.496 28.3503 16.2957 26.8801 17.0633 23.9356L19.3855 15.0433L21.8205 23.7925C22.0872 24.7097 22.4537 25.5076 22.9112 26.1819C23.3687 26.8541 23.9433 27.3875 24.6328 27.7735C25.3289 28.1573 26.1442 28.3503 27.0744 28.3503C27.7097 28.3503 28.3775 28.1681 29.08 27.806C29.7804 27.4461 30.4331 26.9127 31.0359 26.2015C31.6365 25.4924 32.1005 24.6706 32.4214 23.7318L40.4008 0.444092H34.4054L27.6099 20.2625C27.4863 20.6289 27.3584 20.8479 27.2717 20.9433Z" fill="#F28F17"/>
<path d="M39.6137 28.3249C37.6449 28.3249 36.0447 26.7226 36.0447 24.7581C36.0447 22.7936 37.6449 21.1934 39.6137 21.1934C41.576 21.1934 43.1784 22.7936 43.1784 24.7581C43.1784 26.7226 41.576 28.3249 39.6137 28.3249Z" fill="#F28F17"/>
</g>
<path d="M56.962 14.7801C56.962 16.7574 56.394 18.2422 55.2579 19.2344C54.1291 20.2267 52.594 20.7228 50.6526 20.7228C48.7113 20.7228 47.1762 20.2267 46.0473 19.2344C44.9256 18.2422 44.3648 16.7574 44.3648 14.7801V4.53409H48.722V14.888C48.722 15.6933 48.8587 16.308 49.1319 16.7322C49.4123 17.1565 49.9192 17.3686 50.6526 17.3686C51.386 17.3686 51.8929 17.1565 52.1733 16.7322C52.4609 16.308 52.6047 15.6933 52.6047 14.888V4.53409H56.962V14.7801ZM65.5975 20.7228C65.1013 20.7228 64.5765 20.6833 64.0228 20.6042C63.4764 20.5323 62.9623 20.3777 62.4805 20.1404C61.9988 19.9031 61.6069 19.5472 61.3049 19.0727C61.0029 18.5909 60.8519 17.9474 60.8519 17.1421V12.224H58.2958V8.98841H58.3498C58.9106 8.98841 59.3564 8.96325 59.6871 8.91292C60.0251 8.86259 60.2767 8.74035 60.4421 8.54622C60.6075 8.35208 60.7153 8.0465 60.7657 7.62947C60.8232 7.21244 60.8519 6.63722 60.8519 5.90382V5.23514H65.2092V8.98841H68.3693V12.224H65.2092V16.0204C65.2092 16.4374 65.2595 16.7898 65.3602 17.0774C65.4609 17.365 65.7305 17.5088 66.1691 17.5088C66.4279 17.5088 66.6724 17.4836 66.9025 17.4333C67.1326 17.383 67.3051 17.3326 67.4202 17.2823V20.4208C67.2548 20.4927 67.0139 20.561 66.6976 20.6257C66.3884 20.6904 66.0217 20.7228 65.5975 20.7228ZM73.7634 20.7012C72.9438 20.7012 72.2104 20.5718 71.5632 20.313C70.9161 20.0469 70.4056 19.6658 70.0317 19.1697C69.6578 18.6664 69.4709 18.0552 69.4709 17.3362C69.4709 16.4878 69.7118 15.8047 70.1935 15.287C70.6824 14.7693 71.3044 14.3775 72.0594 14.1114C72.8215 13.8454 73.6089 13.6764 74.4213 13.6045C75.579 13.4967 76.3591 13.4032 76.7617 13.3241C77.1644 13.245 77.3657 13.1048 77.3657 12.9035V12.8927C77.3657 12.6266 77.2039 12.4002 76.8804 12.2132C76.564 12.0191 76.1398 11.922 75.6077 11.922C74.4717 11.922 73.9036 12.3354 73.9036 13.1623H69.6219C69.6219 12.1988 69.8915 11.3899 70.4308 10.7356C70.9701 10.0813 71.6927 9.58879 72.5986 9.25805C73.5118 8.92011 74.5256 8.75114 75.6401 8.75114C76.697 8.75114 77.6857 8.90932 78.606 9.22569C79.5336 9.54206 80.2849 10.0274 80.8602 10.6817C81.4354 11.3288 81.723 12.1593 81.723 13.1731V17.6274C81.723 17.9438 81.7302 18.2494 81.7445 18.5442C81.7589 18.839 81.8021 19.1122 81.874 19.3639C81.9531 19.6299 82.0573 19.86 82.1867 20.0541C82.3162 20.2411 82.4204 20.3705 82.4995 20.4424H78.2501C78.1854 20.3777 78.0919 20.259 77.9697 20.0865C77.8475 19.9139 77.7468 19.7162 77.6677 19.4933C77.6461 19.4214 77.6246 19.3531 77.603 19.2884C77.1572 19.7413 76.5892 20.0901 75.8989 20.3345C75.2159 20.579 74.504 20.7012 73.7634 20.7012ZM75.0577 17.6166C75.525 17.6166 75.9852 17.4836 76.4382 17.2176C76.8984 16.9444 77.2039 16.4698 77.3549 15.7939C77.017 15.873 76.6719 15.9413 76.3196 15.9988C75.9672 16.0492 75.6257 16.0923 75.295 16.1283C74.7988 16.1786 74.4285 16.2613 74.1841 16.3763C73.9468 16.4842 73.8282 16.6603 73.8282 16.9048C73.8282 17.3794 74.238 17.6166 75.0577 17.6166ZM88.2184 3.58499V20.4424H83.9367V3.58499H88.2184Z" fill="#0D3749"/>
<path d="M102.824 16.8185C102.752 17.4944 102.453 18.1307 101.929 18.7275C101.411 19.3171 100.685 19.7989 99.7499 20.1728C98.8224 20.5395 97.7079 20.7228 96.4065 20.7228C95.0619 20.7228 93.8971 20.4711 92.912 19.9678C91.927 19.4573 91.1684 18.7527 90.6363 17.8539C90.1043 16.948 89.8382 15.909 89.8382 14.737C89.8382 13.5362 90.1115 12.4864 90.6579 11.5877C91.2044 10.6889 91.9701 9.99144 92.9552 9.49532C93.9474 8.9992 95.0979 8.75114 96.4065 8.75114C97.7582 8.75114 98.923 9.00639 99.9009 9.51689C100.886 10.0202 101.645 10.7392 102.177 11.6739C102.709 12.6015 102.975 13.7052 102.975 14.985C102.975 15.2007 102.971 15.3841 102.964 15.5351C102.957 15.6861 102.946 15.8083 102.932 15.9018H94.2818C94.4184 16.4554 94.67 16.8796 95.0367 17.1744C95.4106 17.4692 95.9283 17.6166 96.5898 17.6166C97.2873 17.6166 97.7762 17.5304 98.0566 17.3578C98.3442 17.178 98.5024 16.9983 98.5312 16.8185H102.824ZM96.4604 11.8142C95.3531 11.8142 94.6413 12.3139 94.3249 13.3133H98.5959C98.5455 12.961 98.355 12.6231 98.0243 12.2995C97.6935 11.9759 97.1722 11.8142 96.4604 11.8142ZM116.937 16.8185C116.865 17.4944 116.567 18.1307 116.042 18.7275C115.524 19.3171 114.798 19.7989 113.863 20.1728C112.936 20.5395 111.821 20.7228 110.52 20.7228C109.175 20.7228 108.011 20.4711 107.026 19.9678C106.041 19.4573 105.282 18.7527 104.75 17.8539C104.218 16.948 103.952 15.909 103.952 14.737C103.952 13.5362 104.225 12.4864 104.771 11.5877C105.318 10.6889 106.084 9.99144 107.069 9.49532C108.061 8.9992 109.211 8.75114 110.52 8.75114C111.872 8.75114 113.037 9.00639 114.014 9.51689C115 10.0202 115.758 10.7392 116.29 11.6739C116.822 12.6015 117.088 13.7052 117.088 14.985C117.088 15.2007 117.085 15.3841 117.077 15.5351C117.07 15.6861 117.059 15.8083 117.045 15.9018H108.395C108.532 16.4554 108.784 16.8796 109.15 17.1744C109.524 17.4692 110.042 17.6166 110.703 17.6166C111.401 17.6166 111.89 17.5304 112.17 17.3578C112.458 17.178 112.616 16.9983 112.645 16.8185H116.937ZM110.574 11.8142C109.467 11.8142 108.755 12.3139 108.438 13.3133H112.709C112.659 12.961 112.469 12.6231 112.138 12.2995C111.807 11.9759 111.286 11.8142 110.574 11.8142Z" fill="#F28F17"/>
<defs>
<clipPath id="clip0">
<rect width="42.7222" height="27.9064" fill="white" transform="translate(0.456177 0.442383)"/>
</clipPath>
</defs>
</svg>
